<mxfile host="app.diagrams.net" agent="Mozilla/5.0 (Windows NT 10.0; Win64; x64) AppleWebKit/537.36 (KHTML, like Gecko) Chrome/130.0.0.0 Safari/537.36" version="24.8.6">
  <diagram name="Page-1" id="jTbxCFGi0unOYnlSOrjU">
    <mxGraphModel dx="1017" dy="1524" grid="0" gridSize="10" guides="1" tooltips="1" connect="1" arrows="1" fold="1" page="0" pageScale="1" pageWidth="850" pageHeight="1100" math="0" shadow="0">
      <root>
        <mxCell id="0" />
        <mxCell id="1" parent="0" />
        <mxCell id="j0SlSFj_8PBEEoSbERHS-11" style="edgeStyle=none;curved=1;rounded=0;orthogonalLoop=1;jettySize=auto;html=1;exitX=0.5;exitY=1;exitDx=0;exitDy=0;exitPerimeter=0;entryX=0.5;entryY=0;entryDx=0;entryDy=0;fontSize=12;startSize=8;endSize=8;" edge="1" parent="1" source="j0SlSFj_8PBEEoSbERHS-1" target="j0SlSFj_8PBEEoSbERHS-2">
          <mxGeometry relative="1" as="geometry" />
        </mxCell>
        <mxCell id="j0SlSFj_8PBEEoSbERHS-1" value="&lt;i&gt;START&lt;/i&gt;" style="strokeWidth=2;html=1;shape=mxgraph.flowchart.terminator;whiteSpace=wrap;" vertex="1" parent="1">
          <mxGeometry x="130" y="-81" width="100" height="60" as="geometry" />
        </mxCell>
        <mxCell id="j0SlSFj_8PBEEoSbERHS-12" style="edgeStyle=none;curved=1;rounded=0;orthogonalLoop=1;jettySize=auto;html=1;exitX=0.5;exitY=1;exitDx=0;exitDy=0;fontSize=12;startSize=8;endSize=8;" edge="1" parent="1" source="j0SlSFj_8PBEEoSbERHS-2" target="j0SlSFj_8PBEEoSbERHS-4">
          <mxGeometry relative="1" as="geometry" />
        </mxCell>
        <mxCell id="j0SlSFj_8PBEEoSbERHS-2" value="Data Teks" style="shape=parallelogram;html=1;strokeWidth=2;perimeter=parallelogramPerimeter;whiteSpace=wrap;rounded=1;arcSize=12;size=0.23;" vertex="1" parent="1">
          <mxGeometry x="117.25" y="23" width="125.5" height="60" as="geometry" />
        </mxCell>
        <mxCell id="j0SlSFj_8PBEEoSbERHS-13" style="edgeStyle=none;curved=1;rounded=0;orthogonalLoop=1;jettySize=auto;html=1;exitX=0.5;exitY=1;exitDx=0;exitDy=0;fontSize=12;startSize=8;endSize=8;" edge="1" parent="1" source="j0SlSFj_8PBEEoSbERHS-4" target="j0SlSFj_8PBEEoSbERHS-5">
          <mxGeometry relative="1" as="geometry" />
        </mxCell>
        <mxCell id="j0SlSFj_8PBEEoSbERHS-4" value="&lt;i&gt;Text Cleaning&lt;/i&gt;" style="shape=process;whiteSpace=wrap;html=1;backgroundOutline=1;" vertex="1" parent="1">
          <mxGeometry x="120" y="127" width="120" height="60" as="geometry" />
        </mxCell>
        <mxCell id="j0SlSFj_8PBEEoSbERHS-14" style="edgeStyle=none;curved=1;rounded=0;orthogonalLoop=1;jettySize=auto;html=1;exitX=0.5;exitY=1;exitDx=0;exitDy=0;fontSize=12;startSize=8;endSize=8;" edge="1" parent="1" source="j0SlSFj_8PBEEoSbERHS-5" target="j0SlSFj_8PBEEoSbERHS-6">
          <mxGeometry relative="1" as="geometry" />
        </mxCell>
        <mxCell id="j0SlSFj_8PBEEoSbERHS-5" value="Pembakuan&amp;nbsp;&lt;div&gt;Kata&lt;/div&gt;" style="shape=process;whiteSpace=wrap;html=1;backgroundOutline=1;" vertex="1" parent="1">
          <mxGeometry x="120" y="231" width="120" height="60" as="geometry" />
        </mxCell>
        <mxCell id="j0SlSFj_8PBEEoSbERHS-15" style="edgeStyle=none;curved=1;rounded=0;orthogonalLoop=1;jettySize=auto;html=1;exitX=0.5;exitY=1;exitDx=0;exitDy=0;entryX=0.5;entryY=0;entryDx=0;entryDy=0;fontSize=12;startSize=8;endSize=8;" edge="1" parent="1" source="j0SlSFj_8PBEEoSbERHS-6" target="j0SlSFj_8PBEEoSbERHS-7">
          <mxGeometry relative="1" as="geometry" />
        </mxCell>
        <mxCell id="j0SlSFj_8PBEEoSbERHS-6" value="&lt;i&gt;Negation&lt;/i&gt;&lt;div&gt;&lt;i&gt;Handling&lt;/i&gt;&lt;/div&gt;" style="shape=process;whiteSpace=wrap;html=1;backgroundOutline=1;" vertex="1" parent="1">
          <mxGeometry x="120" y="335" width="120" height="60" as="geometry" />
        </mxCell>
        <mxCell id="j0SlSFj_8PBEEoSbERHS-16" style="edgeStyle=none;curved=1;rounded=0;orthogonalLoop=1;jettySize=auto;html=1;exitX=0.5;exitY=1;exitDx=0;exitDy=0;entryX=0.5;entryY=0;entryDx=0;entryDy=0;fontSize=12;startSize=8;endSize=8;" edge="1" parent="1" source="j0SlSFj_8PBEEoSbERHS-7" target="j0SlSFj_8PBEEoSbERHS-8">
          <mxGeometry relative="1" as="geometry" />
        </mxCell>
        <mxCell id="j0SlSFj_8PBEEoSbERHS-7" value="&lt;i&gt;Stopwords&lt;/i&gt;&lt;div&gt;&lt;i&gt;Removal&lt;/i&gt;&lt;/div&gt;" style="shape=process;whiteSpace=wrap;html=1;backgroundOutline=1;" vertex="1" parent="1">
          <mxGeometry x="120" y="439" width="120" height="60" as="geometry" />
        </mxCell>
        <mxCell id="j0SlSFj_8PBEEoSbERHS-17" style="edgeStyle=none;curved=1;rounded=0;orthogonalLoop=1;jettySize=auto;html=1;exitX=0.5;exitY=1;exitDx=0;exitDy=0;entryX=0.5;entryY=0;entryDx=0;entryDy=0;fontSize=12;startSize=8;endSize=8;" edge="1" parent="1" source="j0SlSFj_8PBEEoSbERHS-8" target="j0SlSFj_8PBEEoSbERHS-9">
          <mxGeometry relative="1" as="geometry" />
        </mxCell>
        <mxCell id="j0SlSFj_8PBEEoSbERHS-8" value="&lt;i&gt;Stemming&lt;/i&gt;" style="shape=process;whiteSpace=wrap;html=1;backgroundOutline=1;" vertex="1" parent="1">
          <mxGeometry x="120" y="543" width="120" height="60" as="geometry" />
        </mxCell>
        <mxCell id="j0SlSFj_8PBEEoSbERHS-9" value="Hasil&lt;div&gt;&lt;i&gt;Preprocessing&lt;/i&gt;&lt;/div&gt;" style="shape=parallelogram;html=1;strokeWidth=2;perimeter=parallelogramPerimeter;whiteSpace=wrap;rounded=1;arcSize=12;size=0.23;" vertex="1" parent="1">
          <mxGeometry x="117.25" y="647" width="125.5" height="60" as="geometry" />
        </mxCell>
        <mxCell id="j0SlSFj_8PBEEoSbERHS-10" value="&lt;i&gt;END&lt;/i&gt;" style="strokeWidth=2;html=1;shape=mxgraph.flowchart.terminator;whiteSpace=wrap;" vertex="1" parent="1">
          <mxGeometry x="130" y="751" width="100" height="60" as="geometry" />
        </mxCell>
        <mxCell id="j0SlSFj_8PBEEoSbERHS-18" style="edgeStyle=none;curved=1;rounded=0;orthogonalLoop=1;jettySize=auto;html=1;exitX=0.5;exitY=1;exitDx=0;exitDy=0;entryX=0.5;entryY=0;entryDx=0;entryDy=0;entryPerimeter=0;fontSize=12;startSize=8;endSize=8;" edge="1" parent="1" source="j0SlSFj_8PBEEoSbERHS-9" target="j0SlSFj_8PBEEoSbERHS-10">
          <mxGeometry relative="1" as="geometry" />
        </mxCell>
      </root>
    </mxGraphModel>
  </diagram>
</mxfile>
